<svg width="260" height="55" viewBox="0 0 260 55" fill="none" xmlns="http://www.w3.org/2000/svg">
<g clip-path="url(#clip0_84_1735)">
<path d="M115.632 3.27747V38.9866H107.059V3.27747H115.632Z" fill="white"/>
<path d="M155.089 3.27747V17.2279C156.041 16.3242 157.172 15.6211 158.413 15.1618C159.654 14.7026 160.977 14.497 162.302 14.5577C170.415 14.5577 173.993 21.0269 173.993 27.138C173.993 33.2492 170.43 39.7028 162.318 39.7028C157.984 39.7028 155.311 37.7255 154.102 35.7559V38.9632H146.539V3.27747H155.089ZM159.98 21.4707C158.964 21.4674 157.967 21.7428 157.102 22.2656C156.238 22.7885 155.54 23.5379 155.089 24.4289V29.8783C155.542 30.7682 156.24 31.5166 157.104 32.0393C157.968 32.5619 158.964 32.8381 159.98 32.8366C163.607 32.8366 165.173 29.925 165.173 27.1614C165.173 24.3978 163.622 21.4707 159.996 21.4707H159.98Z" fill="white"/>
<path d="M201.106 15.2972V38.9866H193.551V36.2696C192.595 37.3553 191.41 38.2262 190.079 38.8228C188.747 39.4193 187.3 39.7274 185.836 39.7261C179.187 39.7261 176.157 35.3277 176.157 30.0028V15.2972H184.73V28.8662C184.73 31.3808 186.321 32.5718 188.405 32.5718C189.209 32.5476 189.997 32.3485 190.712 31.989C191.427 31.6295 192.052 31.1185 192.54 30.4933V15.2972H201.106Z" fill="white"/>
<path d="M215.16 14.5577C219.494 14.5577 222.159 16.5351 223.375 18.5047V15.2973H230.931V37.9979C230.931 47.4721 223.924 50.5783 216.615 50.5783C213.012 50.6042 209.448 49.8464 206.18 48.3596L208.193 42.2173C210.491 43.175 212.964 43.6701 215.462 43.6731C219.343 43.6731 222.365 42.5365 222.365 38.4884V37.056C221.411 37.9534 220.28 38.6509 219.041 39.106C217.802 39.5611 216.481 39.7642 215.16 39.7028C207.039 39.7028 203.46 33.2336 203.46 27.1147C203.46 20.9958 207.039 14.5577 215.16 14.5577ZM217.474 21.4707C213.847 21.4707 212.281 24.3822 212.281 27.1381C212.281 29.8939 213.871 32.8132 217.474 32.8132C218.49 32.8147 219.486 32.5386 220.35 32.0159C221.214 31.4933 221.912 30.7449 222.365 29.855V24.4056C221.91 23.5189 221.211 22.7743 220.347 22.2557C219.483 21.7371 218.488 21.4652 217.474 21.4707Z" fill="white"/>
<path d="M104.235 33.7784L105.198 38.8075C103.81 39.3059 102.342 39.5564 100.863 39.547C98.191 39.547 96.2265 38.6128 95.1131 36.9313C92.7359 38.8239 89.7545 39.838 86.6906 39.7961C82.0538 39.7961 78.2681 37.0792 78.2681 32.4939C78.2681 26.523 84.066 24.7091 88.7584 24.7091C90.5199 24.7081 92.2766 24.8881 93.9996 25.2462V24.4055C93.9996 22.724 92.409 21.4395 88.9572 21.4395C86.5531 21.4757 84.1728 21.9127 81.9186 22.7317L80.4632 16.2158C83.5114 15.2541 86.6859 14.7297 89.8878 14.6588C97.6343 14.6355 102.597 17.2512 102.597 25.69V32.3071C102.597 33.4281 103.392 33.7784 104.235 33.7784ZM90.023 34.121C91.4521 34.1599 92.8529 33.7266 93.9996 32.891V29.6836C93.0024 29.3846 91.9647 29.235 90.9217 29.2399C88.9095 29.2399 87.0962 29.9249 87.0962 31.8011C87.1041 33.0389 88.2096 34.121 90.023 34.121Z" fill="white"/>
<path d="M143.763 33.7786L144.749 38.8076C143.361 39.3052 141.893 39.5557 140.415 39.5471C137.743 39.5471 135.778 38.613 134.665 36.9314C132.29 38.8223 129.311 39.8363 126.25 39.7963C121.613 39.7963 117.828 37.0793 117.828 32.4941C117.828 26.5231 123.626 24.7092 128.318 24.7092C130.079 24.7082 131.836 24.8882 133.559 25.2463V24.4056C133.559 22.7241 131.969 21.4395 128.517 21.4395C126.121 21.4777 123.748 21.9147 121.502 22.7318L120.047 16.2159C123.095 15.2535 126.269 14.729 129.471 14.6589C137.186 14.6589 142.125 17.2746 142.125 25.7057V32.3228C142.101 33.4282 142.912 33.7786 143.763 33.7786ZM129.551 34.1211C130.98 34.16 132.381 33.7267 133.527 32.8911V29.6837C132.53 29.3847 131.492 29.2351 130.449 29.24C128.437 29.24 126.616 29.925 126.616 31.8012C126.624 33.039 127.737 34.1211 129.551 34.1211Z" fill="white"/>
<path d="M259.038 33.7786L260 38.8076C258.612 39.306 257.144 39.5565 255.665 39.5471C252.993 39.5471 251.029 38.613 249.915 36.9314C247.54 38.8223 244.562 39.8363 241.501 39.7963C236.864 39.7963 233.078 37.0793 233.078 32.4941C233.078 26.5231 238.876 24.7092 243.568 24.7092C245.33 24.7082 247.087 24.8882 248.81 25.2463V24.4056C248.81 22.7241 247.219 21.4395 243.767 21.4395C241.371 21.4785 238.999 21.9154 236.753 22.7318L235.297 16.2159C238.345 15.2542 241.52 14.7298 244.722 14.6589C252.436 14.6589 257.375 17.2746 257.375 25.7057V32.3228C257.375 33.4282 258.187 33.7786 259.038 33.7786ZM244.825 34.1211C246.254 34.16 247.655 33.7267 248.802 32.8911V29.6837C247.804 29.3847 246.767 29.2351 245.724 29.24C243.712 29.24 241.898 29.925 241.898 31.8012C241.906 33.039 243.012 34.1211 244.825 34.1211Z" fill="white"/>
<path d="M41.508 8.31422C37.956 5.25281 34.1609 2.47265 30.1587 0C26.1591 2.47283 22.3667 5.25299 18.8174 8.31422C22.8184 10.5545 26.6131 13.1305 30.1587 16.0134C33.7084 13.1321 37.5056 10.5562 41.508 8.31422Z" fill="white"/>
<path d="M49.5247 35.7481C52.9138 33.0737 56.5267 30.6831 60.3253 28.6016C58.1063 25.6122 55.6726 22.6229 53.0798 19.6958L52.4436 18.9951C50.9166 19.7892 49.3524 20.6922 47.7512 21.7042C45.6117 23.0588 43.4484 24.5846 41.2852 26.2584C42.3191 27.3405 43.353 28.4459 44.371 29.5903C46.1685 31.6066 47.8864 33.6696 49.5247 35.7481Z" fill="white"/>
<path d="M31.105 16.7764C34.3806 19.4802 37.503 22.3571 40.4581 25.3942C43.9455 22.6455 47.6712 20.1996 51.5926 18.0842C48.7092 14.9474 45.656 11.9642 42.4464 9.14722C41.1818 9.83228 39.8934 10.5874 38.5731 11.4282C35.9889 13.0803 33.496 14.8656 31.105 16.7764Z" fill="white"/>
<path d="M19.0322 26.2584C16.8768 24.5846 14.7135 23.0588 12.5741 21.7042C10.9835 20.6922 9.3928 19.7892 7.88168 18.9951L7.24542 19.6958C4.63675 22.6229 2.21896 25.6122 0 28.6016C3.79855 30.6831 7.41147 33.0737 10.8005 35.7481C12.4389 33.6696 14.1568 31.6066 15.9542 29.5903C16.9723 28.4459 17.9982 27.3405 19.0322 26.2584Z" fill="white"/>
<path d="M36.4896 43.1592L36.1953 42.8166C36.0601 42.6687 35.9329 42.513 35.8056 42.3651L35.3602 41.8513C35.2648 41.7423 35.1694 41.6256 35.066 41.5166L34.2707 40.6447C33.4011 39.6742 32.5262 38.7218 31.6461 37.7876C31.6461 37.7876 31.6461 37.7876 31.6461 37.7487L31.0178 37.087C30.7394 36.7912 30.4531 36.5031 30.1668 36.2151C29.6657 36.7289 29.1567 37.2505 28.6557 37.7721C27.7702 38.7062 26.8953 39.6586 26.0311 40.6291L25.2358 41.501L24.9494 41.8358L24.5041 42.3496C24.3688 42.4975 24.2416 42.6532 24.1143 42.8011L23.8201 43.1514C23.1281 43.9688 22.4521 44.7862 21.792 45.6114C23.213 47.0594 24.626 48.5671 26.0311 50.1344L26.8264 51.0063L27.1366 51.3566L27.5581 51.8471L27.9717 52.3375L28.2023 52.6022C28.8704 53.3807 29.5305 54.1592 30.1747 54.9922C30.8269 54.2137 31.487 53.3885 32.1551 52.5944L32.3778 52.3375L32.7993 51.8471L33.2208 51.3566L33.531 51.0063L34.3263 50.1344C35.7261 48.5774 37.1338 47.0594 38.5654 45.6114C37.8496 44.794 37.1736 43.9688 36.4896 43.1592Z" fill="white"/>
<path d="M8.74854 18.0842C12.67 20.1996 16.3956 22.6455 19.8831 25.3942C22.8311 22.3556 25.9482 19.4787 29.2202 16.7764C26.8228 14.8632 24.3219 13.0779 21.7283 11.4282C20.416 10.5952 19.1196 9.87121 17.855 9.14722C14.6608 11.9671 11.6211 14.9503 8.74854 18.0842Z" fill="white"/>
</g>
<defs>
<clipPath id="clip0_84_1735">
<rect width="260" height="55" fill="white"/>
</clipPath>
</defs>
</svg>
